{
    "asset": {
        "version": "2.0",
        "generator": "Open Asset Import Library (assimp v5.4.0)"
    },
    "extensionsUsed": [
        "KHR_materials_volume",
        "FB_ngon_encoding"
    ],
    "accessors": [
        {
            "bufferView": 0,
            "byteOffset": 0,
            "componentType": 5126,
            "count": 1306,
            "type": "VEC3",
            "max": [
                0.01341223530471325,
                0.02765852026641369,
                0.008200000040233135
            ],
            "min": [
                -0.013412287458777428,
                0.003396902931854129,
                -0.008200000040233135
            ]
        },
        {
            "bufferView": 1,
            "byteOffset": 0,
            "componentType": 5126,
            "count": 1306,
            "type": "VEC3",
            "max": [
                0.9999991059303284,
                0.9999980330467224,
                1.0
            ],
            "min": [
                -0.9999991059303284,
                -0.9999980330467224,
                -1.0
            ]
        },
        {
            "bufferView": 2,
            "byteOffset": 0,
            "componentType": 5126,
            "count": 1306,
            "type": "VEC2",
            "max": [
                0.9351219534873962,
                1.0
            ],
            "min": [
                0.0,
                0.0
            ]
        },
        {
            "bufferView": 3,
            "byteOffset": 0,
            "componentType": 5126,
            "count": 1306,
            "type": "VEC2",
            "max": [
                0.9351219534873962,
                1.0
            ],
            "min": [
                0.0,
                0.0
            ]
        },
        {
            "bufferView": 4,
            "byteOffset": 0,
            "componentType": 5125,
            "count": 4668,
            "type": "SCALAR",
            "max": [
                1305
            ],
            "min": [
                0
            ]
        },
        {
            "bufferView": 5,
            "byteOffset": 0,
            "componentType": 5126,
            "count": 150,
            "type": "VEC3",
            "max": [
                0.06340575963258743,
                0.020179929211735725,
                0.008200000040233135
            ],
            "min": [
                -0.06340575963258743,
                -0.02765852026641369,
                -0.008200000040233135
            ]
        },
        {
            "bufferView": 6,
            "byteOffset": 0,
            "componentType": 5126,
            "count": 150,
            "type": "VEC3",
            "max": [
                0.9999876022338867,
                0.9999830722808838,
                1.0
            ],
            "min": [
                -0.9999958276748657,
                -0.9999830722808838,
                -1.0
            ]
        },
        {
            "bufferView": 7,
            "byteOffset": 0,
            "componentType": 5126,
            "count": 150,
            "type": "VEC2",
            "max": [
                1.0,
                1.0
            ],
            "min": [
                0.0,
                0.06642419099807739
            ]
        },
        {
            "bufferView": 8,
            "byteOffset": 0,
            "componentType": 5126,
            "count": 150,
            "type": "VEC2",
            "max": [
                1.0,
                1.0
            ],
            "min": [
                0.0,
                0.06642419099807739
            ]
        },
        {
            "bufferView": 9,
            "byteOffset": 0,
            "componentType": 5125,
            "count": 396,
            "type": "SCALAR",
            "max": [
                149
            ],
            "min": [
                0
            ]
        }
    ],
    "buffers": [
        {
            "byteLength": 78496,
            "uri": "rvrlogo_0.bin"
        }
    ],
    "bufferViews": [
        {
            "buffer": 0,
            "byteOffset": 0,
            "byteLength": 15672,
            "target": 34962
        },
        {
            "buffer": 0,
            "byteOffset": 15672,
            "byteLength": 15672,
            "target": 34962
        },
        {
            "buffer": 0,
            "byteOffset": 31344,
            "byteLength": 10448,
            "target": 34962
        },
        {
            "buffer": 0,
            "byteOffset": 41792,
            "byteLength": 10448,
            "target": 34962
        },
        {
            "buffer": 0,
            "byteOffset": 52240,
            "byteLength": 18672,
            "target": 34963
        },
        {
            "buffer": 0,
            "byteOffset": 70912,
            "byteLength": 1800,
            "target": 34962
        },
        {
            "buffer": 0,
            "byteOffset": 72712,
            "byteLength": 1800,
            "target": 34962
        },
        {
            "buffer": 0,
            "byteOffset": 74512,
            "byteLength": 1200,
            "target": 34962
        },
        {
            "buffer": 0,
            "byteOffset": 75712,
            "byteLength": 1200,
            "target": 34962
        },
        {
            "buffer": 0,
            "byteOffset": 76912,
            "byteLength": 1584,
            "target": 34963
        }
    ],
    "images": [
        {
            "uri": "textures/image_1.png"
        },
        {
            "uri": "textures/image_0.png"
        },
        {
            "uri": "textures/image_2.png"
        },
        {
            "uri": "textures/image_3.png"
        },
        {
            "uri": "textures/image_5.png"
        },
        {
            "uri": "textures/image_4.png"
        },
        {
            "uri": "textures/image_6.png"
        },
        {
            "uri": "textures/image_7.png"
        }
    ],
    "materials": [
        {
            "name": "material",
            "pbrMetallicRoughness": {
                "baseColorTexture": {
                    "index": 0
                },
                "metallicRoughnessTexture": {
                    "index": 1
                }
            },
            "normalTexture": {
                "index": 2
            },
            "occlusionTexture": {
                "index": 3,
                "texCoord": 1
            },
            "doubleSided": true
        },
        {
            "name": "material",
            "pbrMetallicRoughness": {
                "baseColorTexture": {
                    "index": 4
                },
                "metallicRoughnessTexture": {
                    "index": 5
                }
            },
            "normalTexture": {
                "index": 6
            },
            "occlusionTexture": {
                "index": 7,
                "texCoord": 1
            },
            "doubleSided": true
        }
    ],
    "meshes": [
        {
            "name": "meshes[0]",
            "primitives": [
                {
                    "mode": 4,
                    "material": 0,
                    "indices": 4,
                    "attributes": {
                        "POSITION": 0,
                        "NORMAL": 1,
                        "TEXCOORD_0": 2,
                        "TEXCOORD_1": 3
                    }
                }
            ]
        },
        {
            "name": "meshes[1]",
            "primitives": [
                {
                    "mode": 4,
                    "material": 1,
                    "indices": 9,
                    "attributes": {
                        "POSITION": 5,
                        "NORMAL": 6,
                        "TEXCOORD_0": 7,
                        "TEXCOORD_1": 8
                    }
                }
            ]
        }
    ],
    "nodes": [
        {
            "name": "rvrlogo",
            "children": [
                1
            ]
        },
        {
            "name": "ROOT",
            "children": [
                2,
                3
            ],
            "extras": {
                "name": "ROOT"
            }
        },
        {
            "name": "nodes0",
            "mesh": 0,
            "extras": {
                "name": "nodes[0]"
            }
        },
        {
            "name": "nodes1",
            "mesh": 1,
            "extras": {
                "name": "nodes[1]"
            }
        }
    ],
    "samplers": [
        {
            "magFilter": 9729,
            "minFilter": 9729
        },
        {
            "magFilter": 9729,
            "minFilter": 9729
        },
        {
            "magFilter": 9729,
            "minFilter": 9729
        },
        {
            "magFilter": 9729,
            "minFilter": 9729
        },
        {
            "magFilter": 9729,
            "minFilter": 9729
        },
        {
            "magFilter": 9729,
            "minFilter": 9729
        },
        {
            "magFilter": 9729,
            "minFilter": 9729
        },
        {
            "magFilter": 9729,
            "minFilter": 9729
        }
    ],
    "scenes": [
        {
            "nodes": [
                0
            ]
        }
    ],
    "textures": [
        {
            "source": 0,
            "sampler": 0
        },
        {
            "source": 1,
            "sampler": 1
        },
        {
            "source": 2,
            "sampler": 2
        },
        {
            "source": 3,
            "sampler": 3
        },
        {
            "source": 4,
            "sampler": 4
        },
        {
            "source": 5,
            "sampler": 5
        },
        {
            "source": 6,
            "sampler": 6
        },
        {
            "source": 7,
            "sampler": 7
        }
    ],
    "scene": 0
}